<svg xmlns="http://www.w3.org/2000/svg" version="1" viewBox="0 0 24 24" enable-background="new 0 0 24 24" width="48" height="48" style="fill: rgb(255, 255, 255);">
    <path d="M 4.5 1.5 L 4 8 L 10.5 7.5 L 8.03125 5.03125 C 9.206754 4.368679 10.586458 4 12 4 C 16.4 4 20 7.6 20 12 L 20 12.6875 L 21.6875 14.40625 C 21.8875 13.60625 22 12.8 22 12 C 22 6.5 17.5 2 12 2 C 9.998416 2 8.1451089 2.5819616 6.59375 3.59375 L 4.5 1.5 z M 2.3125 9.59375 C 2.1125 10.39375 2 11.2 2 12 C 2 17.5 6.5 22 12 22 C 13.993731 22 15.829882 21.375216 17.375 20.375 L 19.5 22.5 L 20 16 L 13.5 16.5 L 15.96875 18.96875 C 14.79652 19.632926 13.414286 20 12 20 C 7.6 20 4 16.4 4 12 L 4 11.3125 L 2.3125 9.59375 z"/>
</svg>